<mxfile host="app.diagrams.net" agent="Mozilla/5.0 (Windows NT 10.0; Win64; x64) AppleWebKit/537.36 (KHTML, like Gecko) Chrome/131.0.0.0 Safari/537.36" version="25.0.3">
  <diagram name="1 oldal" id="S-hTsTyBhYaaxKdL3ZkJ">
    <mxGraphModel dx="1434" dy="780" grid="1" gridSize="10" guides="1" tooltips="1" connect="1" arrows="1" fold="1" page="1" pageScale="1" pageWidth="1169" pageHeight="827" math="0" shadow="0">
      <root>
        <mxCell id="0" />
        <mxCell id="1" parent="0" />
        <mxCell id="d2PmDVxQlNVbCJnxoW9F-13" style="edgeStyle=orthogonalEdgeStyle;rounded=0;orthogonalLoop=1;jettySize=auto;html=1;exitX=0.5;exitY=1;exitDx=0;exitDy=0;entryX=0.5;entryY=0;entryDx=0;entryDy=0;endArrow=none;endFill=0;" parent="1" source="d2PmDVxQlNVbCJnxoW9F-1" target="d2PmDVxQlNVbCJnxoW9F-2" edge="1">
          <mxGeometry relative="1" as="geometry">
            <Array as="points">
              <mxPoint x="585" y="130" />
              <mxPoint x="202" y="130" />
            </Array>
          </mxGeometry>
        </mxCell>
        <mxCell id="d2PmDVxQlNVbCJnxoW9F-14" style="edgeStyle=orthogonalEdgeStyle;rounded=0;orthogonalLoop=1;jettySize=auto;html=1;exitX=0.5;exitY=1;exitDx=0;exitDy=0;entryX=0.5;entryY=0;entryDx=0;entryDy=0;endArrow=none;endFill=0;" parent="1" source="d2PmDVxQlNVbCJnxoW9F-1" target="d2PmDVxQlNVbCJnxoW9F-4" edge="1">
          <mxGeometry relative="1" as="geometry" />
        </mxCell>
        <mxCell id="d2PmDVxQlNVbCJnxoW9F-15" style="edgeStyle=orthogonalEdgeStyle;rounded=0;orthogonalLoop=1;jettySize=auto;html=1;exitX=0.5;exitY=1;exitDx=0;exitDy=0;entryX=0.5;entryY=0;entryDx=0;entryDy=0;endArrow=none;endFill=0;" parent="1" source="d2PmDVxQlNVbCJnxoW9F-1" target="d2PmDVxQlNVbCJnxoW9F-3" edge="1">
          <mxGeometry relative="1" as="geometry">
            <Array as="points">
              <mxPoint x="585" y="130" />
              <mxPoint x="949" y="130" />
            </Array>
          </mxGeometry>
        </mxCell>
        <mxCell id="d2PmDVxQlNVbCJnxoW9F-1" value="BFHRGP" style="ellipse;whiteSpace=wrap;html=1;dashed=1;" parent="1" vertex="1">
          <mxGeometry x="525" y="30" width="120" height="80" as="geometry" />
        </mxCell>
        <mxCell id="d2PmDVxQlNVbCJnxoW9F-9" style="edgeStyle=orthogonalEdgeStyle;rounded=0;orthogonalLoop=1;jettySize=auto;html=1;exitX=0;exitY=0.5;exitDx=0;exitDy=0;entryX=0.5;entryY=0;entryDx=0;entryDy=0;endArrow=none;endFill=0;" parent="1" source="d2PmDVxQlNVbCJnxoW9F-2" edge="1">
          <mxGeometry relative="1" as="geometry">
            <mxPoint x="62" y="341" as="targetPoint" />
            <Array as="points">
              <mxPoint x="62" y="321" />
            </Array>
          </mxGeometry>
        </mxCell>
        <mxCell id="d2PmDVxQlNVbCJnxoW9F-10" style="edgeStyle=orthogonalEdgeStyle;rounded=0;orthogonalLoop=1;jettySize=auto;html=1;exitX=0;exitY=1;exitDx=0;exitDy=0;entryX=0.5;entryY=0;entryDx=0;entryDy=0;endArrow=none;endFill=0;" parent="1" source="d2PmDVxQlNVbCJnxoW9F-2" target="d2PmDVxQlNVbCJnxoW9F-6" edge="1">
          <mxGeometry relative="1" as="geometry" />
        </mxCell>
        <mxCell id="d2PmDVxQlNVbCJnxoW9F-11" style="edgeStyle=orthogonalEdgeStyle;rounded=0;orthogonalLoop=1;jettySize=auto;html=1;exitX=1;exitY=1;exitDx=0;exitDy=0;entryX=0.5;entryY=0;entryDx=0;entryDy=0;endArrow=none;endFill=0;" parent="1" source="d2PmDVxQlNVbCJnxoW9F-2" target="d2PmDVxQlNVbCJnxoW9F-7" edge="1">
          <mxGeometry relative="1" as="geometry" />
        </mxCell>
        <mxCell id="d2PmDVxQlNVbCJnxoW9F-12" style="edgeStyle=orthogonalEdgeStyle;rounded=0;orthogonalLoop=1;jettySize=auto;html=1;exitX=1;exitY=0.5;exitDx=0;exitDy=0;entryX=0.5;entryY=0;entryDx=0;entryDy=0;endArrow=none;endFill=0;" parent="1" source="d2PmDVxQlNVbCJnxoW9F-2" target="d2PmDVxQlNVbCJnxoW9F-8" edge="1">
          <mxGeometry relative="1" as="geometry" />
        </mxCell>
        <mxCell id="d2PmDVxQlNVbCJnxoW9F-2" value="Termék" style="ellipse;whiteSpace=wrap;html=1;" parent="1" vertex="1">
          <mxGeometry x="142" y="281" width="120" height="80" as="geometry" />
        </mxCell>
        <mxCell id="d2PmDVxQlNVbCJnxoW9F-44" style="edgeStyle=orthogonalEdgeStyle;rounded=0;orthogonalLoop=1;jettySize=auto;html=1;exitX=0;exitY=0.5;exitDx=0;exitDy=0;entryX=0.5;entryY=0;entryDx=0;entryDy=0;endArrow=none;endFill=0;" parent="1" source="d2PmDVxQlNVbCJnxoW9F-3" edge="1">
          <mxGeometry relative="1" as="geometry">
            <mxPoint x="789" y="382" as="targetPoint" />
          </mxGeometry>
        </mxCell>
        <mxCell id="d2PmDVxQlNVbCJnxoW9F-45" style="edgeStyle=orthogonalEdgeStyle;rounded=0;orthogonalLoop=1;jettySize=auto;html=1;exitX=0.5;exitY=1;exitDx=0;exitDy=0;endArrow=none;endFill=0;" parent="1" source="d2PmDVxQlNVbCJnxoW9F-3" target="d2PmDVxQlNVbCJnxoW9F-22" edge="1">
          <mxGeometry relative="1" as="geometry" />
        </mxCell>
        <mxCell id="d2PmDVxQlNVbCJnxoW9F-46" style="edgeStyle=orthogonalEdgeStyle;rounded=0;orthogonalLoop=1;jettySize=auto;html=1;exitX=0.5;exitY=1;exitDx=0;exitDy=0;entryX=0.5;entryY=0;entryDx=0;entryDy=0;endArrow=none;endFill=0;" parent="1" source="d2PmDVxQlNVbCJnxoW9F-3" target="d2PmDVxQlNVbCJnxoW9F-23" edge="1">
          <mxGeometry relative="1" as="geometry" />
        </mxCell>
        <mxCell id="d2PmDVxQlNVbCJnxoW9F-47" style="edgeStyle=orthogonalEdgeStyle;rounded=0;orthogonalLoop=1;jettySize=auto;html=1;exitX=1;exitY=0.5;exitDx=0;exitDy=0;entryX=0.5;entryY=0;entryDx=0;entryDy=0;endArrow=none;endFill=0;" parent="1" source="d2PmDVxQlNVbCJnxoW9F-3" target="d2PmDVxQlNVbCJnxoW9F-24" edge="1">
          <mxGeometry relative="1" as="geometry">
            <Array as="points">
              <mxPoint x="1109" y="362" />
            </Array>
          </mxGeometry>
        </mxCell>
        <mxCell id="d2PmDVxQlNVbCJnxoW9F-3" value="Vásárló" style="ellipse;whiteSpace=wrap;html=1;" parent="1" vertex="1">
          <mxGeometry x="889" y="322" width="120" height="80" as="geometry" />
        </mxCell>
        <mxCell id="d2PmDVxQlNVbCJnxoW9F-20" style="edgeStyle=orthogonalEdgeStyle;rounded=0;orthogonalLoop=1;jettySize=auto;html=1;exitX=0.5;exitY=1;exitDx=0;exitDy=0;entryX=0.5;entryY=0;entryDx=0;entryDy=0;endArrow=none;endFill=0;" parent="1" source="d2PmDVxQlNVbCJnxoW9F-4" target="d2PmDVxQlNVbCJnxoW9F-17" edge="1">
          <mxGeometry relative="1" as="geometry" />
        </mxCell>
        <mxCell id="d2PmDVxQlNVbCJnxoW9F-36" style="edgeStyle=orthogonalEdgeStyle;rounded=0;orthogonalLoop=1;jettySize=auto;html=1;exitX=0;exitY=0.5;exitDx=0;exitDy=0;entryX=0.5;entryY=0;entryDx=0;entryDy=0;endArrow=none;endFill=0;" parent="1" source="d2PmDVxQlNVbCJnxoW9F-4" edge="1">
          <mxGeometry relative="1" as="geometry">
            <Array as="points">
              <mxPoint x="420" y="200" />
            </Array>
            <mxPoint x="420" y="210" as="targetPoint" />
          </mxGeometry>
        </mxCell>
        <mxCell id="d2PmDVxQlNVbCJnxoW9F-37" style="edgeStyle=orthogonalEdgeStyle;rounded=0;orthogonalLoop=1;jettySize=auto;html=1;exitX=1;exitY=0.5;exitDx=0;exitDy=0;entryX=0.5;entryY=0;entryDx=0;entryDy=0;endArrow=none;endFill=0;" parent="1" source="d2PmDVxQlNVbCJnxoW9F-4" edge="1">
          <mxGeometry relative="1" as="geometry">
            <Array as="points">
              <mxPoint x="750" y="200" />
            </Array>
            <mxPoint x="750" y="210" as="targetPoint" />
          </mxGeometry>
        </mxCell>
        <mxCell id="zUjPNj2LLkEhoh2cF5m9-5" style="edgeStyle=orthogonalEdgeStyle;rounded=0;orthogonalLoop=1;jettySize=auto;html=1;exitX=1;exitY=0;exitDx=0;exitDy=0;entryX=0.5;entryY=0;entryDx=0;entryDy=0;endArrow=none;endFill=0;" edge="1" parent="1" source="d2PmDVxQlNVbCJnxoW9F-4" target="zUjPNj2LLkEhoh2cF5m9-4">
          <mxGeometry relative="1" as="geometry">
            <Array as="points">
              <mxPoint x="627" y="160" />
            </Array>
          </mxGeometry>
        </mxCell>
        <mxCell id="d2PmDVxQlNVbCJnxoW9F-4" value="Vásárlás" style="ellipse;whiteSpace=wrap;html=1;" parent="1" vertex="1">
          <mxGeometry x="525" y="160" width="120" height="80" as="geometry" />
        </mxCell>
        <mxCell id="d2PmDVxQlNVbCJnxoW9F-38" style="edgeStyle=orthogonalEdgeStyle;rounded=0;orthogonalLoop=1;jettySize=auto;html=1;exitX=0.5;exitY=1;exitDx=0;exitDy=0;entryX=0.5;entryY=1;entryDx=0;entryDy=0;dashed=1;dashPattern=8 8;endArrow=none;endFill=0;" parent="1" target="zUjPNj2LLkEhoh2cF5m9-2" edge="1">
          <mxGeometry relative="1" as="geometry">
            <Array as="points">
              <mxPoint x="62" y="630" />
              <mxPoint x="420" y="630" />
            </Array>
            <mxPoint x="62" y="421" as="sourcePoint" />
            <mxPoint x="420" y="290" as="targetPoint" />
          </mxGeometry>
        </mxCell>
        <mxCell id="d2PmDVxQlNVbCJnxoW9F-29" style="edgeStyle=orthogonalEdgeStyle;rounded=0;orthogonalLoop=1;jettySize=auto;html=1;exitX=0.5;exitY=1;exitDx=0;exitDy=0;entryX=1;entryY=0.5;entryDx=0;entryDy=0;endArrow=none;endFill=0;" parent="1" source="d2PmDVxQlNVbCJnxoW9F-6" target="d2PmDVxQlNVbCJnxoW9F-28" edge="1">
          <mxGeometry relative="1" as="geometry" />
        </mxCell>
        <mxCell id="d2PmDVxQlNVbCJnxoW9F-6" value="Név" style="ellipse;whiteSpace=wrap;html=1;fontStyle=0" parent="1" vertex="1">
          <mxGeometry x="80" y="421" width="120" height="80" as="geometry" />
        </mxCell>
        <mxCell id="d2PmDVxQlNVbCJnxoW9F-31" style="edgeStyle=orthogonalEdgeStyle;rounded=0;orthogonalLoop=1;jettySize=auto;html=1;exitX=0.5;exitY=1;exitDx=0;exitDy=0;endArrow=none;endFill=0;entryX=1;entryY=0.5;entryDx=0;entryDy=0;" parent="1" source="d2PmDVxQlNVbCJnxoW9F-7" target="d2PmDVxQlNVbCJnxoW9F-30" edge="1">
          <mxGeometry relative="1" as="geometry">
            <mxPoint x="279.9655172413793" y="521" as="targetPoint" />
            <Array as="points">
              <mxPoint x="270" y="511" />
              <mxPoint x="270" y="511" />
            </Array>
          </mxGeometry>
        </mxCell>
        <mxCell id="d2PmDVxQlNVbCJnxoW9F-7" value="Ár" style="ellipse;whiteSpace=wrap;html=1;fontStyle=0" parent="1" vertex="1">
          <mxGeometry x="210" y="421" width="120" height="80" as="geometry" />
        </mxCell>
        <mxCell id="d2PmDVxQlNVbCJnxoW9F-33" style="edgeStyle=orthogonalEdgeStyle;rounded=0;orthogonalLoop=1;jettySize=auto;html=1;exitX=0.5;exitY=1;exitDx=0;exitDy=0;entryX=1;entryY=0.5;entryDx=0;entryDy=0;endArrow=none;endFill=0;" parent="1" source="d2PmDVxQlNVbCJnxoW9F-8" target="d2PmDVxQlNVbCJnxoW9F-32" edge="1">
          <mxGeometry relative="1" as="geometry" />
        </mxCell>
        <mxCell id="d2PmDVxQlNVbCJnxoW9F-8" value="Méret" style="ellipse;whiteSpace=wrap;html=1;fontStyle=0" parent="1" vertex="1">
          <mxGeometry x="292" y="341" width="120" height="80" as="geometry" />
        </mxCell>
        <mxCell id="d2PmDVxQlNVbCJnxoW9F-18" style="edgeStyle=orthogonalEdgeStyle;rounded=0;orthogonalLoop=1;jettySize=auto;html=1;exitX=0.5;exitY=0;exitDx=0;exitDy=0;entryX=0.5;entryY=1;entryDx=0;entryDy=0;endArrow=none;endFill=0;" parent="1" source="d2PmDVxQlNVbCJnxoW9F-16" target="d2PmDVxQlNVbCJnxoW9F-4" edge="1">
          <mxGeometry relative="1" as="geometry" />
        </mxCell>
        <mxCell id="d2PmDVxQlNVbCJnxoW9F-40" style="edgeStyle=orthogonalEdgeStyle;rounded=0;orthogonalLoop=1;jettySize=auto;html=1;exitX=0.5;exitY=1;exitDx=0;exitDy=0;entryX=1;entryY=0.5;entryDx=0;entryDy=0;endArrow=none;endFill=0;" parent="1" source="d2PmDVxQlNVbCJnxoW9F-16" target="d2PmDVxQlNVbCJnxoW9F-39" edge="1">
          <mxGeometry relative="1" as="geometry" />
        </mxCell>
        <mxCell id="d2PmDVxQlNVbCJnxoW9F-16" value="Dátum" style="ellipse;whiteSpace=wrap;html=1;fontStyle=0" parent="1" vertex="1">
          <mxGeometry x="460" y="290" width="120" height="80" as="geometry" />
        </mxCell>
        <mxCell id="d2PmDVxQlNVbCJnxoW9F-17" value="Darab" style="ellipse;whiteSpace=wrap;html=1;fontStyle=0" parent="1" vertex="1">
          <mxGeometry x="600" y="290" width="120" height="80" as="geometry" />
        </mxCell>
        <mxCell id="d2PmDVxQlNVbCJnxoW9F-43" style="edgeStyle=orthogonalEdgeStyle;rounded=0;orthogonalLoop=1;jettySize=auto;html=1;exitX=0.5;exitY=1;exitDx=0;exitDy=0;entryX=0.5;entryY=1;entryDx=0;entryDy=0;dashed=1;dashPattern=8 8;endArrow=none;endFill=0;" parent="1" edge="1">
          <mxGeometry relative="1" as="geometry">
            <Array as="points">
              <mxPoint x="789" y="482" />
              <mxPoint x="720" y="482" />
              <mxPoint x="720" y="360" />
              <mxPoint x="750" y="360" />
            </Array>
            <mxPoint x="789" y="462" as="sourcePoint" />
            <mxPoint x="750" y="290" as="targetPoint" />
          </mxGeometry>
        </mxCell>
        <mxCell id="d2PmDVxQlNVbCJnxoW9F-60" style="edgeStyle=orthogonalEdgeStyle;rounded=0;orthogonalLoop=1;jettySize=auto;html=1;exitX=0;exitY=1;exitDx=0;exitDy=0;entryX=1;entryY=0.5;entryDx=0;entryDy=0;endArrow=none;endFill=0;" parent="1" source="d2PmDVxQlNVbCJnxoW9F-22" target="d2PmDVxQlNVbCJnxoW9F-53" edge="1">
          <mxGeometry relative="1" as="geometry">
            <Array as="points">
              <mxPoint x="810" y="520" />
              <mxPoint x="810" y="556" />
            </Array>
          </mxGeometry>
        </mxCell>
        <mxCell id="d2PmDVxQlNVbCJnxoW9F-61" style="edgeStyle=orthogonalEdgeStyle;rounded=0;orthogonalLoop=1;jettySize=auto;html=1;exitX=0.5;exitY=1;exitDx=0;exitDy=0;entryX=1;entryY=0;entryDx=0;entryDy=0;endArrow=none;endFill=0;" parent="1" source="d2PmDVxQlNVbCJnxoW9F-22" target="d2PmDVxQlNVbCJnxoW9F-54" edge="1">
          <mxGeometry relative="1" as="geometry">
            <Array as="points">
              <mxPoint x="879" y="600" />
              <mxPoint x="772" y="600" />
            </Array>
          </mxGeometry>
        </mxCell>
        <mxCell id="d2PmDVxQlNVbCJnxoW9F-62" style="edgeStyle=orthogonalEdgeStyle;rounded=0;orthogonalLoop=1;jettySize=auto;html=1;exitX=0.5;exitY=1;exitDx=0;exitDy=0;entryX=0.5;entryY=0;entryDx=0;entryDy=0;endArrow=none;endFill=0;" parent="1" source="d2PmDVxQlNVbCJnxoW9F-22" target="d2PmDVxQlNVbCJnxoW9F-56" edge="1">
          <mxGeometry relative="1" as="geometry">
            <Array as="points">
              <mxPoint x="879" y="600" />
              <mxPoint x="850" y="600" />
            </Array>
          </mxGeometry>
        </mxCell>
        <mxCell id="d2PmDVxQlNVbCJnxoW9F-63" style="edgeStyle=orthogonalEdgeStyle;rounded=0;orthogonalLoop=1;jettySize=auto;html=1;exitX=0.5;exitY=1;exitDx=0;exitDy=0;entryX=0.5;entryY=0;entryDx=0;entryDy=0;endArrow=none;endFill=0;" parent="1" source="d2PmDVxQlNVbCJnxoW9F-22" target="d2PmDVxQlNVbCJnxoW9F-55" edge="1">
          <mxGeometry relative="1" as="geometry">
            <Array as="points">
              <mxPoint x="879" y="600" />
              <mxPoint x="970" y="600" />
            </Array>
          </mxGeometry>
        </mxCell>
        <mxCell id="d2PmDVxQlNVbCJnxoW9F-22" value="Lakcím" style="ellipse;whiteSpace=wrap;html=1;fontStyle=0" parent="1" vertex="1">
          <mxGeometry x="819" y="452" width="120" height="80" as="geometry" />
        </mxCell>
        <mxCell id="d2PmDVxQlNVbCJnxoW9F-59" style="edgeStyle=orthogonalEdgeStyle;rounded=0;orthogonalLoop=1;jettySize=auto;html=1;exitX=0.5;exitY=1;exitDx=0;exitDy=0;entryX=1;entryY=0.5;entryDx=0;entryDy=0;endArrow=none;endFill=0;" parent="1" source="d2PmDVxQlNVbCJnxoW9F-23" target="d2PmDVxQlNVbCJnxoW9F-57" edge="1">
          <mxGeometry relative="1" as="geometry" />
        </mxCell>
        <mxCell id="d2PmDVxQlNVbCJnxoW9F-23" value="Név" style="ellipse;whiteSpace=wrap;html=1;fontStyle=0" parent="1" vertex="1">
          <mxGeometry x="949" y="452" width="120" height="80" as="geometry" />
        </mxCell>
        <mxCell id="d2PmDVxQlNVbCJnxoW9F-52" style="edgeStyle=orthogonalEdgeStyle;rounded=0;orthogonalLoop=1;jettySize=auto;html=1;exitX=0.5;exitY=1;exitDx=0;exitDy=0;entryX=1;entryY=0.5;entryDx=0;entryDy=0;endArrow=none;endFill=0;" parent="1" source="d2PmDVxQlNVbCJnxoW9F-24" target="d2PmDVxQlNVbCJnxoW9F-51" edge="1">
          <mxGeometry relative="1" as="geometry" />
        </mxCell>
        <mxCell id="d2PmDVxQlNVbCJnxoW9F-24" value="FizMod" style="ellipse;whiteSpace=wrap;html=1;fontStyle=0" parent="1" vertex="1">
          <mxGeometry x="1049" y="382" width="120" height="80" as="geometry" />
        </mxCell>
        <mxCell id="d2PmDVxQlNVbCJnxoW9F-28" value="" style="rounded=0;whiteSpace=wrap;html=1;rotation=-90;" parent="1" vertex="1">
          <mxGeometry x="110" y="535" width="60" height="36" as="geometry" />
        </mxCell>
        <mxCell id="d2PmDVxQlNVbCJnxoW9F-30" value="" style="rounded=0;whiteSpace=wrap;html=1;rotation=-90;" parent="1" vertex="1">
          <mxGeometry x="240" y="535" width="60" height="36" as="geometry" />
        </mxCell>
        <mxCell id="d2PmDVxQlNVbCJnxoW9F-32" value="" style="rounded=0;whiteSpace=wrap;html=1;rotation=-90;" parent="1" vertex="1">
          <mxGeometry x="322" y="444" width="60" height="36" as="geometry" />
        </mxCell>
        <mxCell id="d2PmDVxQlNVbCJnxoW9F-39" value="" style="rounded=0;whiteSpace=wrap;html=1;rotation=-90;" parent="1" vertex="1">
          <mxGeometry x="490" y="396" width="60" height="36" as="geometry" />
        </mxCell>
        <mxCell id="d2PmDVxQlNVbCJnxoW9F-41" style="edgeStyle=orthogonalEdgeStyle;rounded=0;orthogonalLoop=1;jettySize=auto;html=1;exitX=0.5;exitY=1;exitDx=0;exitDy=0;entryX=1;entryY=0.5;entryDx=0;entryDy=0;endArrow=none;endFill=0;" parent="1" target="d2PmDVxQlNVbCJnxoW9F-42" edge="1">
          <mxGeometry relative="1" as="geometry">
            <mxPoint x="660" y="370" as="sourcePoint" />
          </mxGeometry>
        </mxCell>
        <mxCell id="d2PmDVxQlNVbCJnxoW9F-42" value="" style="rounded=0;whiteSpace=wrap;html=1;rotation=-90;" parent="1" vertex="1">
          <mxGeometry x="630" y="396" width="60" height="36" as="geometry" />
        </mxCell>
        <mxCell id="d2PmDVxQlNVbCJnxoW9F-51" value="" style="rounded=0;whiteSpace=wrap;html=1;rotation=-90;" parent="1" vertex="1">
          <mxGeometry x="1079" y="490" width="60" height="36" as="geometry" />
        </mxCell>
        <mxCell id="d2PmDVxQlNVbCJnxoW9F-68" style="edgeStyle=orthogonalEdgeStyle;rounded=0;orthogonalLoop=1;jettySize=auto;html=1;exitX=0.5;exitY=1;exitDx=0;exitDy=0;entryX=1;entryY=0.5;entryDx=0;entryDy=0;endArrow=none;endFill=0;" parent="1" source="d2PmDVxQlNVbCJnxoW9F-53" target="d2PmDVxQlNVbCJnxoW9F-64" edge="1">
          <mxGeometry relative="1" as="geometry" />
        </mxCell>
        <mxCell id="d2PmDVxQlNVbCJnxoW9F-53" value="IrSz." style="ellipse;whiteSpace=wrap;html=1;fontStyle=0" parent="1" vertex="1">
          <mxGeometry x="580" y="513" width="120" height="80" as="geometry" />
        </mxCell>
        <mxCell id="d2PmDVxQlNVbCJnxoW9F-69" style="edgeStyle=orthogonalEdgeStyle;rounded=0;orthogonalLoop=1;jettySize=auto;html=1;exitX=0.5;exitY=1;exitDx=0;exitDy=0;entryX=1;entryY=0.5;entryDx=0;entryDy=0;endArrow=none;endFill=0;" parent="1" source="d2PmDVxQlNVbCJnxoW9F-54" target="d2PmDVxQlNVbCJnxoW9F-65" edge="1">
          <mxGeometry relative="1" as="geometry" />
        </mxCell>
        <mxCell id="d2PmDVxQlNVbCJnxoW9F-54" value="Város" style="ellipse;whiteSpace=wrap;html=1;fontStyle=0" parent="1" vertex="1">
          <mxGeometry x="670" y="620" width="120" height="80" as="geometry" />
        </mxCell>
        <mxCell id="d2PmDVxQlNVbCJnxoW9F-71" style="edgeStyle=orthogonalEdgeStyle;rounded=0;orthogonalLoop=1;jettySize=auto;html=1;exitX=0.5;exitY=1;exitDx=0;exitDy=0;entryX=1;entryY=0.5;entryDx=0;entryDy=0;endArrow=none;endFill=0;" parent="1" source="d2PmDVxQlNVbCJnxoW9F-55" target="d2PmDVxQlNVbCJnxoW9F-67" edge="1">
          <mxGeometry relative="1" as="geometry" />
        </mxCell>
        <mxCell id="d2PmDVxQlNVbCJnxoW9F-55" value="Házszám" style="ellipse;whiteSpace=wrap;html=1;fontStyle=0" parent="1" vertex="1">
          <mxGeometry x="910" y="620" width="120" height="80" as="geometry" />
        </mxCell>
        <mxCell id="d2PmDVxQlNVbCJnxoW9F-70" style="edgeStyle=orthogonalEdgeStyle;rounded=0;orthogonalLoop=1;jettySize=auto;html=1;exitX=0.5;exitY=1;exitDx=0;exitDy=0;entryX=1;entryY=0.5;entryDx=0;entryDy=0;endArrow=none;endFill=0;" parent="1" source="d2PmDVxQlNVbCJnxoW9F-56" target="d2PmDVxQlNVbCJnxoW9F-66" edge="1">
          <mxGeometry relative="1" as="geometry" />
        </mxCell>
        <mxCell id="d2PmDVxQlNVbCJnxoW9F-56" value="Utca" style="ellipse;whiteSpace=wrap;html=1;fontStyle=0" parent="1" vertex="1">
          <mxGeometry x="790" y="665" width="120" height="80" as="geometry" />
        </mxCell>
        <mxCell id="d2PmDVxQlNVbCJnxoW9F-57" value="" style="rounded=0;whiteSpace=wrap;html=1;rotation=-90;" parent="1" vertex="1">
          <mxGeometry x="979" y="560" width="60" height="36" as="geometry" />
        </mxCell>
        <mxCell id="d2PmDVxQlNVbCJnxoW9F-64" value="" style="rounded=0;whiteSpace=wrap;html=1;rotation=-90;" parent="1" vertex="1">
          <mxGeometry x="610" y="620" width="60" height="36" as="geometry" />
        </mxCell>
        <mxCell id="d2PmDVxQlNVbCJnxoW9F-65" value="" style="rounded=0;whiteSpace=wrap;html=1;rotation=-90;" parent="1" vertex="1">
          <mxGeometry x="700" y="734" width="60" height="36" as="geometry" />
        </mxCell>
        <mxCell id="d2PmDVxQlNVbCJnxoW9F-66" value="" style="rounded=0;whiteSpace=wrap;html=1;rotation=-90;" parent="1" vertex="1">
          <mxGeometry x="819" y="777" width="60" height="36" as="geometry" />
        </mxCell>
        <mxCell id="d2PmDVxQlNVbCJnxoW9F-67" value="" style="rounded=0;whiteSpace=wrap;html=1;rotation=-90;" parent="1" vertex="1">
          <mxGeometry x="940" y="734" width="60" height="36" as="geometry" />
        </mxCell>
        <mxCell id="zUjPNj2LLkEhoh2cF5m9-1" value="TermékKód" style="rhombus;whiteSpace=wrap;html=1;fontStyle=4" vertex="1" parent="1">
          <mxGeometry x="22" y="341" width="80" height="80" as="geometry" />
        </mxCell>
        <mxCell id="zUjPNj2LLkEhoh2cF5m9-2" value="TermékKód" style="rhombus;whiteSpace=wrap;html=1;fontStyle=0;horizontal=1;" vertex="1" parent="1">
          <mxGeometry x="380" y="210" width="80" height="80" as="geometry" />
        </mxCell>
        <mxCell id="zUjPNj2LLkEhoh2cF5m9-3" value="VasarloID" style="rhombus;whiteSpace=wrap;html=1;" vertex="1" parent="1">
          <mxGeometry x="710" y="210" width="80" height="80" as="geometry" />
        </mxCell>
        <mxCell id="zUjPNj2LLkEhoh2cF5m9-4" value="VasarlasID" style="rhombus;whiteSpace=wrap;html=1;fontStyle=4" vertex="1" parent="1">
          <mxGeometry x="819" y="160" width="80" height="80" as="geometry" />
        </mxCell>
        <mxCell id="zUjPNj2LLkEhoh2cF5m9-6" value="VasarloID" style="rhombus;whiteSpace=wrap;html=1;fontStyle=4" vertex="1" parent="1">
          <mxGeometry x="749" y="382" width="80" height="80" as="geometry" />
        </mxCell>
        <mxCell id="zUjPNj2LLkEhoh2cF5m9-7" value="" style="endArrow=none;dashed=1;html=1;dashPattern=1 3;strokeWidth=2;rounded=0;jumpSize=4;" edge="1" parent="1">
          <mxGeometry width="50" height="50" relative="1" as="geometry">
            <mxPoint x="441" y="257" as="sourcePoint" />
            <mxPoint x="399" y="257" as="targetPoint" />
            <Array as="points">
              <mxPoint x="429" y="257" />
            </Array>
          </mxGeometry>
        </mxCell>
        <mxCell id="zUjPNj2LLkEhoh2cF5m9-8" value="" style="endArrow=none;dashed=1;html=1;dashPattern=1 3;strokeWidth=2;rounded=0;jumpSize=4;" edge="1" parent="1">
          <mxGeometry width="50" height="50" relative="1" as="geometry">
            <mxPoint x="771" y="257" as="sourcePoint" />
            <mxPoint x="729" y="257" as="targetPoint" />
            <Array as="points">
              <mxPoint x="759" y="257" />
            </Array>
          </mxGeometry>
        </mxCell>
      </root>
    </mxGraphModel>
  </diagram>
</mxfile>
